<svg width="414" height="478" viewBox="0 0 414 478" fill="none" xmlns="http://www.w3.org/2000/svg">
<rect y="38" width="27" height="85" rx="13.5" fill="white"/>
<rect width="27" height="86" rx="13.5" transform="matrix(-1 0 0 1 414 36)" fill="white"/>
<rect x="414" y="372" width="27" height="86" rx="13.5" transform="rotate(180 414 372)" fill="white"/>
<rect width="27" height="86" rx="13.5" transform="matrix(1 0 0 -1 0 372)" fill="white"/>
<rect width="26.5773" height="87.8345" rx="13.2886" transform="matrix(0.0145169 0.999895 -0.999903 0.013912 87.8262 35.9575)" fill="white"/>
<rect width="26.5773" height="87.8345" rx="13.2886" transform="matrix(-0.0145169 0.999895 0.999903 0.013912 326.174 34.394)" fill="white"/>
<rect width="26.5773" height="87.8345" rx="13.2886" transform="matrix(-0.0145169 -0.999895 0.999903 -0.013912 326.174 373.644)" fill="white"/>
<rect width="26.5773" height="87.8345" rx="13.2886" transform="matrix(0.0145169 -0.999895 -0.999903 -0.013912 87.8262 373.644)" fill="white"/>
<path d="M188.839 4.58713L275.542 23.7535L211.947 299.448L99.0136 299.448L188.839 4.58713Z" fill="white"/>
<path d="M228.188 477.311L303.43 204.441L178.186 171.346L228.188 477.311Z" fill="white"/>
</svg>
